<?xml version="1.0" encoding="UTF-8"?>
<svg xmlns="http://www.w3.org/2000/svg" viewBox="0 0 3000 500" width="158" height="35">
	<path fill="#F7F7F7" opacity="1.000000" stroke="none"
		  d="
M62.281036,587.919495
	C55.104359,563.185059 48.295006,538.333984 40.503277,513.794861
	C38.450783,507.330780 40.909595,504.683502 45.207340,501.625458
	C61.753403,489.852264 78.257484,478.020081 94.779213,466.212677
	C120.748528,447.653412 146.863983,429.294525 172.647888,410.481201
	C197.050125,392.676025 221.100281,374.388519 245.327347,356.342773
	C246.509659,355.462158 247.903915,354.866119 249.900055,354.029175
	C252.500565,352.983154 254.572571,352.286377 256.274048,351.070953
	C275.344604,337.447968 294.262878,323.610291 313.406036,310.090790
	C358.191559,278.461853 403.056488,246.945145 447.932770,215.444977
	C467.385712,201.790283 487.039520,188.419510 506.379761,174.608398
	C510.325500,171.790726 515.434753,169.076218 514.791565,162.697479
	C514.868347,162.346130 515.081787,162.129166 516.054199,161.982910
	C524.556946,157.027420 532.457397,152.167694 540.308533,147.229462
	C543.955261,144.935745 547.318909,140.900894 551.140076,140.451080
	C558.530334,139.581070 559.643066,134.059799 562.164856,129.251099
	C562.164856,129.251099 562.522461,128.957062 562.911133,129.171173
	C564.200623,129.582260 565.101379,129.779236 566.317078,129.990463
	C568.858765,129.032257 571.085449,128.059799 573.573975,126.927704
	C576.421143,125.570442 579.006409,124.372826 580.967590,123.464317
	C581.601379,121.721207 581.705139,119.679993 582.757385,118.868279
	C586.021057,116.350571 589.571167,114.169937 593.162720,112.126793
	C594.805725,111.192146 598.016174,111.337036 598.434692,110.215591
	C600.253113,105.344055 604.209534,106.246246 608.150757,105.829254
	C613.221191,102.184090 620.067444,101.489143 622.783264,95.165619
	C622.960999,94.751801 623.892151,94.448784 624.470764,94.452133
	C632.129150,94.496399 636.186157,89.852158 639.312256,83.324791
	C642.168884,82.448273 644.646301,81.709534 647.486328,80.936722
	C649.875305,80.151497 651.845520,79.077469 653.939148,78.713562
	C658.951111,77.842400 664.656433,76.034477 668.446472,80.605095
	C673.082520,86.195778 677.305237,92.316147 680.612427,98.768364
	C683.817627,105.021599 688.065308,108.036530 695.019714,108.189659
	C696.705811,108.226791 699.072205,110.148766 699.849731,111.803574
	C701.443420,115.195206 703.332825,116.875717 707.303894,117.145554
	C715.331848,117.691048 719.850464,124.823837 718.314270,132.765366
	C717.922546,134.790680 718.773132,138.478592 720.180603,139.198883
	C729.339783,143.886108 733.610413,153.363602 741.067078,159.621460
	C743.917114,162.013321 744.590637,164.273956 742.266479,167.724655
	C739.552002,171.754868 740.472900,173.465622 745.412292,174.271851
	C752.426758,175.416794 759.530457,176.029388 766.527161,177.260529
	C768.648193,177.633759 771.247681,178.807709 772.406616,180.467621
	C775.849365,185.398438 780.402039,188.267288 786.001465,189.984818
	C787.846802,190.550842 789.647217,191.613586 791.166870,192.826645
	C795.892090,196.598770 799.895142,196.898621 805.373352,194.192780
	C815.555420,189.163635 819.257263,192.116760 820.189087,201.163727
	C820.404968,203.259430 823.016602,206.007019 825.153687,206.835861
	C831.302429,209.220612 837.820435,210.634140 844.087280,212.744263
	C846.033142,213.399429 848.710205,214.727570 849.208069,216.323120
	C850.929504,221.839996 855.036804,224.377548 859.625916,226.974838
	C865.277161,230.173248 865.094055,231.451935 860.343628,236.146545
	C857.966614,238.495560 856.098389,241.359482 853.678833,244.128571
	C850.295715,246.003754 847.360046,248.034393 844.145874,249.417725
	C837.179810,252.415726 830.016785,254.954742 823.039246,257.927643
	C817.988770,260.079468 813.171509,262.775299 808.135864,264.965637
	C799.393738,268.768280 790.511108,272.248932 781.780579,276.077240
	C764.435913,283.682831 747.214905,291.573059 729.818054,299.055695
	C722.654297,302.136932 715.043396,304.177216 707.873047,307.245209
	C703.042419,309.312195 698.757996,312.624207 693.998291,314.895203
	C684.733276,319.315887 675.300781,323.384827 665.947510,327.621277
	C656.228210,332.023590 646.835205,337.471466 636.722473,340.592163
	C625.806458,343.960785 616.031616,348.869598 606.508179,355.569031
	C598.467834,358.396606 590.810791,361.068207 583.200073,363.865936
	C578.729492,365.509338 574.292542,367.260406 569.918640,369.144592
	C567.576782,370.153442 565.439819,371.628876 563.133118,372.732391
	C561.968201,373.289703 560.335754,373.136383 559.420959,373.906067
	C553.866760,378.579132 547.095703,379.118713 540.284790,379.528961
	C540.888000,377.879395 541.467285,376.502289 542.258545,375.260284
	C553.242737,358.018951 564.262634,340.800354 575.258118,323.566223
	C578.560303,318.390442 579.431519,317.937378 584.809082,321.053986
	C591.052551,324.672546 597.130310,326.088959 604.199585,323.205780
	C611.670410,320.158844 612.847778,318.667999 610.918762,311.002350
	C604.285950,284.644928 597.643921,258.289825 590.999329,231.935349
	C587.809143,219.282227 585.366760,218.613235 575.152649,227.154816
	C556.143860,243.050888 537.018005,258.806793 518.000793,274.692841
	C512.256836,279.491089 506.501862,284.310852 501.134186,289.515015
	C496.072113,294.422821 496.561890,296.817261 501.767731,301.288422
	C506.699219,305.523956 512.090881,307.638123 518.669373,307.035492
	C522.656982,306.670197 526.705322,306.968170 531.436951,306.968170
	C530.483521,309.486511 530.190796,310.606262 529.659607,311.598328
	C528.012756,314.674072 526.426331,317.797913 524.549133,320.732147
	C508.208313,346.275085 490.253876,370.612457 470.022980,393.230133
	C461.398651,402.871857 452.703857,412.450531 443.727051,421.907715
	C442.134857,421.810272 440.745880,421.552429 439.595612,421.963196
	C426.760254,426.546539 413.759308,430.748596 401.198059,435.998749
	C378.996979,445.277924 357.078064,455.231354 335.022400,464.859894
	C328.936615,467.516693 322.662384,469.769409 316.692993,472.658752
	C308.348907,476.697510 300.407837,481.607605 291.943085,485.350616
	C272.200592,494.080536 252.237335,502.310394 232.388474,510.801239
	C227.062897,513.079407 221.801651,515.513245 216.556580,517.973022
	C210.295044,520.909424 204.171005,524.155579 197.824829,526.890259
	C191.046524,529.811157 184.399384,532.711670 180.650391,540.029358
	C178.602753,541.182800 176.956116,542.547791 175.073090,543.086548
	C172.425217,543.844177 169.326660,543.393066 166.907288,544.511292
	C160.654358,547.401489 154.821198,551.209290 148.542206,554.031677
	C136.885559,559.271362 125.030312,564.069214 113.258690,569.053162
	C97.489555,575.729614 81.721313,582.408203 65.643234,588.988403
	C64.316200,588.567139 63.298622,588.243347 62.281036,587.919495
z"/>
	<path fill="#E5E7E8" opacity="1.000000" stroke="none"
		  d="
M876.036194,624.920410
	C874.542969,625.535156 873.081238,626.586792 871.551636,626.696960
	C856.330750,627.793030 841.088989,628.605713 825.873230,629.763672
	C816.031189,630.512634 806.230164,631.785706 796.396729,632.667664
	C788.876526,633.342163 781.335266,633.783997 773.801819,634.307678
	C762.485657,635.094421 751.168213,635.862122 739.457397,636.128296
	C737.187866,630.041870 739.912781,626.198547 743.818481,622.720032
	C748.016541,618.981140 751.719055,614.500000 756.395874,611.541016
	C760.414673,608.998352 765.501709,608.143982 770.116333,606.543030
	C771.250732,606.746704 771.912781,604.919800 772.704041,604.862000
	C777.526794,604.509644 778.239014,600.605347 779.947754,597.358398
	C783.395630,590.806763 783.468323,590.698792 777.298950,586.525146
	C775.934082,585.601746 774.456055,584.845703 772.878052,583.702393
	C767.554565,575.070679 759.271790,570.092896 751.678833,563.887512
	C748.242371,560.150574 745.088440,556.596252 742.277588,552.885010
	C743.888550,552.375061 745.179749,552.089294 746.420410,551.658020
	C752.837158,549.427246 758.681335,546.562378 760.319519,539.087646
	C766.686951,544.511841 773.105042,549.429993 778.658875,555.182495
	C780.645630,557.240234 781.675842,559.631531 785.161987,559.407349
	C789.410828,563.822510 793.337708,568.122314 797.615479,572.038818
	C799.364929,573.640503 802.367126,575.842651 803.945862,575.297913
	C808.958191,573.568420 813.696899,570.890381 818.295593,568.164429
	C822.359619,565.755493 826.083435,562.775452 829.980347,560.080566
	C831.340149,559.140198 833.020630,558.538574 834.126648,557.375366
	C847.695374,543.104980 864.941467,533.877563 881.026611,523.066345
	C885.353943,520.157837 886.006165,515.860107 882.175415,512.264038
	C880.644714,510.827026 878.534851,510.029022 876.834900,508.746338
	C870.650879,504.080475 863.361572,500.293121 862.702454,493.012817
	C860.141846,491.823792 858.524475,491.127197 856.957336,490.331512
	C854.919250,489.296661 852.921143,488.183136 850.904968,487.085266
	C850.904114,487.067078 850.938538,487.055267 850.822754,486.839386
	C850.504700,486.352814 850.243774,486.162476 849.671875,485.832458
	C845.711853,481.389709 842.337830,476.807129 838.238892,473.006439
	C820.096680,456.184448 801.760193,439.571655 783.464661,422.915375
	C775.361633,415.538330 767.188843,408.237823 759.289917,400.645111
	C760.117249,400.072052 760.670044,399.656647 761.292114,399.455353
	C783.885132,392.143677 806.446716,384.731598 829.097534,377.602966
	C842.508057,373.382385 856.141663,369.865784 869.526855,365.570892
	C882.799561,361.312073 895.901855,356.517181 909.033508,351.830261
	C910.514099,351.301788 911.700317,349.948547 913.428894,348.993927
	C916.593872,348.503845 919.342224,347.750092 922.118103,347.629272
	C923.055298,347.588440 924.062256,349.151764 924.730713,350.149994
	C919.501343,352.200684 914.577576,354.080872 909.656006,355.966553
	C900.500549,359.474457 891.138916,362.722290 884.376160,370.297455
	C883.065857,371.765137 883.094360,374.428070 882.505310,376.539612
	C884.827209,376.918091 887.506409,378.228210 889.404053,377.500458
	C895.108704,375.312622 901.031616,373.041595 905.889038,369.469727
	C911.388794,365.425537 916.433838,366.106354 921.703735,368.548798
	C925.542603,370.328033 928.859497,373.232788 932.697083,375.015839
	C936.144165,376.617371 941.901978,379.403931 943.275574,378.106201
	C946.799255,374.777222 951.378784,374.496887 954.861023,371.965515
	C958.491577,369.326355 961.836060,369.736542 964.956482,372.135834
	C968.896179,375.165100 972.919373,378.276733 976.122009,382.023468
	C979.807129,386.334717 984.540527,390.098480 985.053833,396.613861
	C985.496277,402.230927 987.708313,406.088470 994.421875,407.349365
	C1003.698975,409.091766 1007.035522,414.781677 1007.074158,424.499786
	C1007.082458,426.590454 1007.901062,429.828033 1009.350098,430.565735
	C1015.979126,433.940765 1018.778992,439.990845 1022.182495,445.964905
	C1024.489868,450.015045 1024.959595,453.080872 1023.086853,457.501587
	C1022.053650,459.940704 1023.374023,463.932007 1024.810791,466.586304
	C1025.378418,467.635162 1029.150146,466.887054 1031.452759,467.080902
	C1033.068604,467.217010 1035.337769,466.992920 1036.135010,467.931824
	C1037.861572,469.964874 1040.510498,473.401062 1039.821533,474.924225
	C1036.686646,481.855042 1038.452637,487.927979 1041.284058,494.170746
	C1041.647827,494.973022 1041.797852,496.486115 1041.332886,496.942627
	C1039.467896,498.773499 1037.375000,500.390137 1035.261108,501.942871
	C1033.866455,502.967377 1031.881470,503.465393 1030.987671,504.766998
	C1030.592041,505.343048 1031.981445,507.592072 1033.020874,508.613190
	C1035.200073,510.754242 1035.561890,512.755676 1033.274780,515.418945
	C1032.012695,514.290527 1030.966553,512.702332 1029.560059,512.260010
	C1027.727783,511.683777 1025.113403,511.292725 1023.782959,512.204346
	C1022.844177,512.847534 1022.888672,516.028259 1023.545349,517.650635
	C1024.652100,520.384705 1026.633423,522.757019 1028.172363,525.326050
	C1029.793823,528.032776 1031.893921,528.481812 1034.447266,526.748779
	C1041.291382,522.103638 1048.402100,517.787903 1054.856689,512.650024
	C1061.318115,507.506744 1067.956665,503.007050 1076.006104,500.901215
	C1077.438843,500.526398 1078.958252,500.482910 1080.476440,500.281281
	C1080.572632,501.404083 1080.669189,501.740875 1080.608643,502.046692
	C1080.547485,502.356476 1080.402832,502.807343 1080.172485,502.903320
	C1073.393677,505.726837 1074.420532,510.554993 1076.254883,516.117249
	C1076.911865,518.108948 1076.391113,521.376404 1075.082642,522.980591
	C1068.166992,531.459045 1061.021362,539.771484 1053.579468,547.792664
	C1046.948120,554.940186 1039.892456,561.700378 1032.903564,568.507996
	C1025.899902,575.330017 1018.916992,582.190796 1011.603149,588.671448
	C1006.231689,593.431030 1000.251221,596.460388 992.398987,594.326111
	C989.916809,593.651550 986.598938,595.707642 983.765564,596.782837
	C981.660034,597.581848 979.531982,599.931580 977.742371,599.631653
	C973.459412,598.913940 971.286682,600.966370 968.933716,603.806213
	C968.035706,604.890137 966.255615,605.631958 964.795227,605.795593
	C957.382324,606.626343 949.939087,607.182739 942.513611,607.908081
	C939.878723,608.165344 937.195740,608.376770 934.658020,609.064026
	C931.781921,609.843018 929.065430,611.193787 926.238464,612.177917
	C924.454529,612.798950 922.619873,613.350159 920.762451,613.660400
	C919.186523,613.923706 917.285522,613.277954 915.978394,613.932739
	C910.579956,616.636902 903.720886,616.368958 899.665283,621.925171
	C899.249817,622.494324 897.598633,622.123108 896.530090,622.260010
	C889.697327,623.135681 882.867188,624.031311 876.036194,624.920410
z"/>
	<path fill="#DBDDDB" opacity="1.000000" stroke="none"
		  d="
M876.209595,625.321716
	C882.867188,624.031311 889.697327,623.135681 896.530090,622.260010
	C897.598633,622.123108 899.249817,622.494324 899.665283,621.925171
	C903.720886,616.368958 910.579956,616.636902 915.978394,613.932739
	C917.285522,613.277954 919.186523,613.923706 920.762451,613.660400
	C922.619873,613.350159 924.454529,612.798950 926.238464,612.177917
	C929.065430,611.193787 931.781921,609.843018 934.658020,609.064026
	C937.195740,608.376770 939.878723,608.165344 942.513611,607.908081
	C949.939087,607.182739 957.382324,606.626343 964.795227,605.795593
	C966.255615,605.631958 968.035706,604.890137 968.933716,603.806213
	C971.286682,600.966370 973.459412,598.913940 977.742371,599.631653
	C979.531982,599.931580 981.660034,597.581848 983.765564,596.782837
	C986.598938,595.707642 989.916809,593.651550 992.398987,594.326111
	C1000.251221,596.460388 1006.231689,593.431030 1011.603149,588.671448
	C1018.916992,582.190796 1025.899902,575.330017 1032.903564,568.507996
	C1039.892456,561.700378 1046.948120,554.940186 1053.579468,547.792664
	C1061.021362,539.771484 1068.166992,531.459045 1075.082642,522.980591
	C1076.391113,521.376404 1076.911865,518.108948 1076.254883,516.117249
	C1074.420532,510.554993 1073.393677,505.726837 1080.172485,502.903320
	C1080.402832,502.807343 1080.547485,502.356476 1080.608643,502.046692
	C1080.669189,501.740875 1080.572632,501.404083 1080.476440,500.281281
	C1078.958252,500.482910 1077.438843,500.526398 1076.006104,500.901215
	C1067.956665,503.007050 1061.318115,507.506744 1054.856689,512.650024
	C1048.402100,517.787903 1041.291382,522.103638 1034.447266,526.748779
	C1031.893921,528.481812 1029.793823,528.032776 1028.172363,525.326050
	C1026.633423,522.757019 1024.652100,520.384705 1023.545349,517.650635
	C1022.888672,516.028259 1022.844177,512.847534 1023.782959,512.204346
	C1025.113403,511.292725 1027.727783,511.683777 1029.560059,512.260010
	C1030.966553,512.702332 1032.012695,514.290527 1033.274780,515.418945
	C1035.561890,512.755676 1035.200073,510.754242 1033.020874,508.613190
	C1031.981445,507.592072 1030.592041,505.343048 1030.987671,504.766998
	C1031.881470,503.465393 1033.866455,502.967377 1035.261108,501.942871
	C1037.375000,500.390137 1039.467896,498.773499 1041.332886,496.942627
	C1041.797852,496.486115 1041.647827,494.973022 1041.284058,494.170746
	C1038.452637,487.927979 1036.686646,481.855042 1039.821533,474.924225
	C1040.510498,473.401062 1037.861572,469.964874 1036.135010,467.931824
	C1035.337769,466.992920 1033.068604,467.217010 1031.452759,467.080902
	C1029.150146,466.887054 1025.378418,467.635162 1024.810791,466.586304
	C1023.374023,463.932007 1022.053650,459.940704 1023.086853,457.501587
	C1024.959595,453.080872 1024.489868,450.015045 1022.182495,445.964905
	C1018.778992,439.990845 1015.979126,433.940765 1009.350098,430.565735
	C1007.901062,429.828033 1007.082458,426.590454 1007.074158,424.499786
	C1007.035522,414.781677 1003.698975,409.091766 994.421875,407.349365
	C987.708313,406.088470 985.496277,402.230927 985.053833,396.613861
	C984.540527,390.098480 979.807129,386.334717 976.122009,382.023468
	C972.919373,378.276733 968.896179,375.165100 964.956482,372.135834
	C961.836060,369.736542 958.491577,369.326355 954.861023,371.965515
	C951.378784,374.496887 946.799255,374.777222 943.275574,378.106201
	C941.901978,379.403931 936.144165,376.617371 932.697083,375.015839
	C928.859497,373.232788 925.542603,370.328033 921.703735,368.548798
	C916.433838,366.106354 911.388794,365.425537 905.889038,369.469727
	C901.031616,373.041595 895.108704,375.312622 889.404053,377.500458
	C887.506409,378.228210 884.827209,376.918091 882.505310,376.539612
	C883.094360,374.428070 883.065857,371.765137 884.376160,370.297455
	C891.138916,362.722290 900.500549,359.474457 909.656006,355.966553
	C914.577576,354.080872 919.501343,352.200684 924.972778,349.859436
	C925.681335,347.597626 925.841125,345.794342 926.000916,343.991089
	C928.241882,343.508484 930.482788,343.025909 933.493896,342.630646
	C936.364624,342.262115 938.513794,341.962921 940.558350,341.327026
	C972.449524,331.408875 1004.298828,321.354675 1036.231812,311.573273
	C1042.658203,309.604767 1049.390259,308.633545 1055.970947,307.555115
	C1054.276978,309.829590 1052.515869,311.690521 1050.936890,313.694885
	C1049.901367,315.009399 1048.212646,316.747375 1048.485229,317.901947
	C1048.783447,319.166046 1050.948486,320.062439 1052.396606,320.964050
	C1054.251709,322.119110 1056.396240,322.879761 1058.075073,324.233337
	C1062.349487,327.679749 1066.331421,331.018402 1072.461182,331.233215
	C1075.931152,331.354828 1080.083740,333.055634 1082.561157,335.456421
	C1086.165771,338.949463 1089.921265,340.147797 1094.262085,338.834534
	C1098.750488,337.476624 1100.854370,339.605103 1102.454956,343.049286
	C1103.287354,344.840485 1103.815552,346.782959 1104.378174,348.687561
	C1105.738403,353.291595 1105.412720,359.084198 1112.397705,359.061859
	C1111.377075,366.489899 1111.383789,366.479279 1117.614502,370.425140
	C1118.594849,371.045959 1120.023438,371.632080 1120.327515,372.541077
	C1122.760010,379.815399 1126.821289,377.607117 1131.128540,374.610138
	C1131.348633,374.457092 1131.767822,374.590424 1132.748413,374.590424
	C1133.380005,379.751892 1137.466064,381.213226 1142.006470,382.286499
	C1143.201172,382.568909 1144.089355,383.979645 1145.283203,384.473541
	C1146.920044,385.150696 1148.933228,386.197174 1150.400513,385.768677
	C1155.072266,384.404327 1157.546265,387.031464 1160.039673,390.083527
	C1164.369507,395.383270 1166.679199,401.336914 1167.404053,408.241302
	C1168.151489,415.361755 1167.765625,417.066742 1161.443970,419.993011
	C1157.970459,421.600861 1155.778687,424.124451 1157.564087,427.872833
	C1159.800171,432.567932 1159.343872,436.607910 1156.697510,440.919373
	C1155.621460,442.672394 1155.615845,445.066467 1155.040649,447.146027
	C1153.815918,451.574707 1152.883179,456.124146 1151.213257,460.381958
	C1146.867798,471.461945 1142.206543,482.418610 1137.618164,493.402222
	C1137.115356,494.605988 1136.375854,495.751373 1135.561890,496.777863
	C1131.559204,501.825867 1127.277344,506.672241 1123.583618,511.933472
	C1122.476562,513.510315 1122.202271,516.458008 1122.854126,518.319946
	C1124.217651,522.215576 1126.250122,525.926331 1128.374390,529.494873
	C1131.482788,534.716309 1131.331299,535.282166 1125.433472,536.011902
	C1119.467896,536.750122 1117.461426,539.375122 1118.067627,545.316956
	C1118.487671,549.435486 1118.862427,553.574402 1118.931152,557.709595
	C1119.048218,564.754639 1116.663452,567.269226 1109.609375,567.943054
	C1108.287842,568.069336 1106.938965,567.902771 1105.615723,568.019165
	C1100.104614,568.503601 1096.630981,572.765625 1095.743652,577.826294
	C1095.288330,580.422913 1092.687500,582.944275 1090.498169,584.862427
	C1087.530273,587.462891 1084.048828,589.485229 1080.742920,591.688293
	C1079.248169,592.684509 1077.749878,593.966492 1076.075684,594.355957
	C1063.351318,597.316101 1050.611328,600.223877 1037.820435,602.879028
	C1025.068115,605.526123 1012.262024,607.920715 999.455444,610.296082
	C995.585876,611.013794 994.079285,612.987305 994.989136,616.803955
	C984.438049,617.490112 973.877197,618.053528 963.338745,618.897461
	C953.132874,619.714783 942.962646,620.985107 932.754395,621.763916
	C913.972595,623.196777 895.174316,624.415222 876.209595,625.321716
z"/>
	<path fill="#D4D6D3" opacity="1.000000" stroke="none"
		  d="
M995.444580,616.856995
	C994.079285,612.987305 995.585876,611.013794 999.455444,610.296082
	C1012.262024,607.920715 1025.068115,605.526123 1037.820435,602.879028
	C1050.611328,600.223877 1063.351318,597.316101 1076.075684,594.355957
	C1077.749878,593.966492 1079.248169,592.684509 1080.742920,591.688293
	C1084.048828,589.485229 1087.530273,587.462891 1090.498169,584.862427
	C1092.687500,582.944275 1095.288330,580.422913 1095.743652,577.826294
	C1096.630981,572.765625 1100.104614,568.503601 1105.615723,568.019165
	C1106.938965,567.902771 1108.287842,568.069336 1109.609375,567.943054
	C1116.663452,567.269226 1119.048218,564.754639 1118.931152,557.709595
	C1118.862427,553.574402 1118.487671,549.435486 1118.067627,545.316956
	C1117.461426,539.375122 1119.467896,536.750122 1125.433472,536.011902
	C1131.331299,535.282166 1131.482788,534.716309 1128.374390,529.494873
	C1126.250122,525.926331 1124.217651,522.215576 1122.854126,518.319946
	C1122.202271,516.458008 1122.476562,513.510315 1123.583618,511.933472
	C1127.277344,506.672241 1131.559204,501.825867 1135.561890,496.777863
	C1136.375854,495.751373 1137.115356,494.605988 1137.618164,493.402222
	C1142.206543,482.418610 1146.867798,471.461945 1151.213257,460.381958
	C1152.883179,456.124146 1153.815918,451.574707 1155.040649,447.146027
	C1155.615845,445.066467 1155.621460,442.672394 1156.697510,440.919373
	C1159.343872,436.607910 1159.800171,432.567932 1157.564087,427.872833
	C1155.778687,424.124451 1157.970459,421.600861 1161.443970,419.993011
	C1167.765625,417.066742 1168.151489,415.361755 1167.404053,408.241302
	C1166.679199,401.336914 1164.369507,395.383270 1160.039673,390.083527
	C1157.546265,387.031464 1155.072266,384.404327 1150.400513,385.768677
	C1148.933228,386.197174 1146.920044,385.150696 1145.283203,384.473541
	C1144.089355,383.979645 1143.201172,382.568909 1142.006470,382.286499
	C1137.466064,381.213226 1133.380005,379.751892 1132.748413,374.590424
	C1131.767822,374.590424 1131.348633,374.457092 1131.128540,374.610138
	C1126.821289,377.607117 1122.760010,379.815399 1120.327515,372.541077
	C1120.023438,371.632080 1118.594849,371.045959 1117.614502,370.425140
	C1111.383789,366.479279 1111.377075,366.489899 1112.397705,359.061859
	C1105.412720,359.084198 1105.738403,353.291595 1104.378174,348.687561
	C1103.815552,346.782959 1103.287354,344.840485 1102.454956,343.049286
	C1100.854370,339.605103 1098.750488,337.476624 1094.262085,338.834534
	C1089.921265,340.147797 1086.165771,338.949463 1082.561157,335.456421
	C1080.083740,333.055634 1075.931152,331.354828 1072.461182,331.233215
	C1066.331421,331.018402 1062.349487,327.679749 1058.075073,324.233337
	C1056.396240,322.879761 1054.251709,322.119110 1052.396606,320.964050
	C1050.948486,320.062439 1048.783447,319.166046 1048.485229,317.901947
	C1048.212646,316.747375 1049.901367,315.009399 1050.936890,313.694885
	C1052.515869,311.690521 1054.276978,309.829590 1056.163696,307.322510
	C1057.213989,305.560913 1057.830688,303.688141 1058.945312,303.319092
	C1067.455322,300.501312 1075.975586,297.609863 1084.684448,295.552551
	C1087.891479,294.794983 1092.720581,294.948242 1094.921509,296.860016
	C1108.466064,308.625580 1121.395630,321.095551 1134.676025,333.170319
	C1147.580811,344.903625 1160.560303,356.559265 1173.692627,368.036804
	C1187.258789,379.893524 1201.240356,391.279724 1214.674438,403.281158
	C1224.085693,411.688843 1233.146118,420.531464 1241.884277,429.639374
	C1251.523560,439.686493 1260.409180,450.454651 1270.002930,460.547638
	C1279.812988,470.868042 1280.150879,480.240723 1270.199585,490.183044
	C1267.272827,493.107178 1264.117188,495.829987 1260.878540,498.409119
	C1250.010376,507.064545 1239.070312,515.629944 1228.133057,524.198425
	C1217.352173,532.644470 1206.498779,540.998596 1195.755737,549.492249
	C1185.065796,557.943970 1174.434692,566.472046 1163.890259,575.103882
	C1162.673340,576.099976 1162.175293,577.974243 1161.344116,579.441406
	C1161.208984,579.747742 1160.983154,579.955139 1160.062256,580.051147
	C1155.025269,583.118103 1150.558960,586.150574 1146.166870,589.287109
	C1137.059448,595.791077 1130.127441,605.735229 1117.035400,605.722656
	C1110.690063,605.716553 1104.379395,608.155762 1097.986328,608.693176
	C1091.327026,609.252930 1084.567871,608.532410 1077.886475,608.937317
	C1058.242676,610.127869 1038.612671,611.555786 1018.989197,613.048523
	C1017.537354,613.158936 1016.180969,614.524963 1014.780151,615.307251
	C1008.486755,615.841492 1002.193420,616.375732 995.444580,616.856995
z"/>
	<path fill="#9AC9E1" opacity="1.000000" stroke="none"
		  d="
M649.971985,643.104797
	C648.476013,643.652893 647.007019,644.576660 645.479614,644.686035
	C637.462341,645.260010 629.419250,645.488342 621.407410,646.119507
	C616.564880,646.501099 611.762756,647.396729 606.051514,648.043823
	C597.525574,648.343445 589.862061,649.244385 582.260864,648.872253
	C555.361755,647.555603 528.923828,652.400940 502.184814,653.932434
	C500.809998,649.418518 498.792358,645.963135 493.899963,644.727173
	C474.755676,625.471924 454.819763,607.621033 433.994019,590.434998
	C433.882294,590.176147 433.758423,589.161255 433.186188,588.683899
	C430.018250,586.041565 426.667755,583.617249 423.513977,580.959045
	C408.439178,568.253418 393.381805,555.526672 378.377106,542.738342
	C374.143188,539.129883 370.108521,535.287659 366.114960,531.187317
	C370.631836,528.965576 374.916443,526.811951 379.416809,525.300781
	C408.913910,515.396240 438.428314,505.540344 468.019714,495.922943
	C472.155212,494.578888 476.743896,494.629181 481.438995,494.144348
	C484.172150,496.003754 486.744019,497.575562 488.981476,499.530151
	C506.222931,514.592041 523.412964,529.713013 540.592712,544.845398
	C559.637512,561.620483 578.885071,578.174927 597.609253,595.301208
	C612.039185,608.499695 625.721497,622.512512 639.914124,635.975708
	C642.865295,638.775269 646.598938,640.750000 649.971985,643.104797
z"/>
	<path fill="#F8F8F8" opacity="1.000000" stroke="none"
		  d="
M113.048279,648.965210
	C108.573349,645.408142 104.098434,641.851013 99.369110,637.913818
	C99.114700,637.533630 99.225494,637.163757 99.550743,637.075562
	C104.879280,631.101196 111.155647,625.864563 114.571846,619.168579
	C119.103523,610.286255 126.274200,606.876831 134.867554,604.489136
	C139.653793,603.159241 144.421982,601.726624 149.107880,600.082520
	C155.461777,597.853210 161.729004,595.376892 168.432175,592.997437
	C184.887390,588.656982 200.943848,584.325562 217.018005,580.359131
	C218.940979,583.105530 220.514236,585.885315 222.809860,587.798279
	C231.970459,595.431885 241.385986,602.758545 250.650558,610.268616
	C262.821594,620.134888 274.935974,630.071045 287.081848,639.968445
	C290.989807,643.153015 295.104858,646.111694 298.785461,649.538635
	C302.074310,652.600891 304.895020,656.166016 307.983917,659.577271
	C308.336792,659.288940 309.087372,658.675720 309.878906,658.413696
	C311.638367,661.169739 313.356903,663.574524 314.977600,666.334290
	C313.485474,667.705017 312.192688,669.398560 310.680237,669.625000
	C301.812958,670.952576 292.894379,671.937195 283.758667,672.780273
	C282.423401,670.970825 281.572083,669.132935 280.178375,667.916382
	C274.299286,662.784668 268.350861,657.722534 262.256104,652.849792
	C252.052689,644.692139 241.774979,636.624512 231.416412,628.664917
	C225.682358,624.258850 224.440414,624.492615 218.209305,628.417725
	C203.473740,637.700195 188.638840,646.824768 173.887100,656.081726
	C166.045609,661.002441 157.656021,665.318359 152.594788,673.916626
	C145.318207,669.258972 138.466553,664.488770 131.435532,659.999634
	C125.413109,656.154419 119.185272,652.630920 113.048279,648.965210
z"/>
	<path fill="#EEEFF0" opacity="1.000000" stroke="none"
		  d="
M650.445068,643.169434
	C646.598938,640.750000 642.865295,638.775269 639.914124,635.975708
	C625.721497,622.512512 612.039185,608.499695 597.609253,595.301208
	C578.885071,578.174927 559.637512,561.620483 540.592712,544.845398
	C523.412964,529.713013 506.222931,514.592041 488.981476,499.530151
	C486.744019,497.575562 484.172150,496.003754 481.393311,493.777863
	C485.042206,491.214630 489.052979,489.128174 493.461243,487.034912
	C499.228394,486.429443 504.597992,485.830750 510.148773,485.503052
	C511.594971,486.845642 512.844788,487.935791 514.127686,488.985504
	C518.726013,492.747986 523.564880,496.253418 527.878235,500.317261
	C532.460388,504.634186 536.540344,509.483063 540.867249,514.073669
	C541.186951,514.412842 541.751465,514.507935 542.164734,514.774536
	C544.199829,516.087341 546.425110,517.192505 548.211426,518.787415
	C553.666931,523.658203 558.847534,528.837769 564.321838,533.686340
	C583.224731,550.428833 602.278076,567.001892 621.138306,583.791992
	C639.127502,599.806702 656.946960,616.012085 674.876953,632.487854
	C676.918213,635.437866 678.923523,638.033691 680.928894,640.629517
	C672.586792,641.545349 664.248413,642.497192 655.899536,643.346069
	C654.259827,643.512756 652.579712,643.281677 650.445068,643.169434
z"/>
	<path fill="#ABA9A4" opacity="1.000000" stroke="none"
		  d="
M925.872437,343.672791
	C925.841125,345.794342 925.681335,347.597626 925.279419,349.691437
	C924.062256,349.151764 923.055298,347.588440 922.118103,347.629272
	C919.342224,347.750092 916.593872,348.503845 913.505859,348.697388
	C913.632019,346.312988 913.592651,343.947968 914.619995,342.215637
	C923.335449,327.519012 932.402039,313.029480 941.039124,298.287903
	C946.413025,289.115936 951.322388,279.665833 956.264343,270.248260
	C962.104797,259.118256 967.791016,247.906723 973.478333,236.697174
	C978.739441,226.327667 983.942688,215.928452 989.107788,205.510773
	C990.565979,202.569702 989.975220,200.131927 987.950073,197.279846
	C985.322510,193.579224 981.967957,191.863739 978.262878,190.919098
	C982.118835,189.235733 985.574219,187.568146 989.100952,186.265381
	C994.021667,188.934540 997.949890,186.572968 1001.584900,183.865570
	C1004.935669,181.369888 1005.219971,178.342148 1002.484009,174.866165
	C998.898254,170.310562 995.741394,165.417633 992.161499,160.857056
	C991.187866,159.616745 989.356079,159.049988 987.683228,157.911118
	C984.473938,152.190887 981.769287,146.552307 977.313599,141.928131
	C977.243347,140.544449 977.233826,139.255646 976.607666,138.440643
	C972.525574,133.127335 968.356506,127.878204 964.091675,122.710564
	C963.377258,121.844833 962.058044,121.478172 960.719360,120.768723
	C959.057617,117.807938 957.999023,114.759354 956.280212,112.144791
	C948.084229,99.676933 939.564636,87.420631 931.437439,74.908951
	C923.122009,62.107460 915.332153,48.962219 906.915894,36.229431
	C902.080383,28.913914 895.948792,23.595072 885.908081,25.011536
	C877.068359,26.258558 868.072205,26.353348 859.166687,27.186985
	C845.817627,28.436573 832.420959,29.430605 819.164734,31.359522
	C799.173706,34.268410 779.279663,37.850368 759.364807,41.265541
	C757.202698,41.636326 755.177856,42.800453 753.084473,43.583385
	C752.215820,43.908260 751.344238,44.414429 750.456238,44.455517
	C749.004700,44.522671 747.538635,44.276649 745.663208,44.176682
	C732.100403,46.477680 718.924805,48.618336 705.823669,51.144939
	C702.106384,51.861824 698.605957,53.703796 694.588989,55.024654
	C691.582092,55.625614 688.993774,56.721455 686.402344,56.729027
	C681.932495,56.742092 679.901550,59.071640 678.537476,62.962345
	C676.247681,62.002918 674.325256,61.033428 671.687256,59.703068
	C661.691162,66.325897 650.992859,73.414024 639.587219,80.970779
	C642.851074,80.970779 644.987366,80.970779 647.123718,80.970787
	C644.646301,81.709534 642.168884,82.448273 639.267456,82.970535
	C636.775513,79.684601 635.719727,82.546463 634.447937,83.567833
	C633.327820,84.467384 632.516052,85.805611 631.318054,86.544731
	C623.620667,91.293907 615.789551,95.829468 608.156799,100.678268
	C606.277893,101.871864 605.150757,103.977051 607.799011,105.905525
	C604.209534,106.246246 600.253113,105.344055 598.434692,110.215591
	C598.016174,111.337036 594.805725,111.192146 593.162720,112.126793
	C589.571167,114.169937 586.021057,116.350571 582.757385,118.868279
	C581.705139,119.679993 581.601379,121.721207 580.967590,123.464317
	C579.006409,124.372826 576.421143,125.570442 573.139587,126.909760
	C569.958435,127.282341 566.772949,125.970306 566.002136,129.976227
	C565.101379,129.779236 564.200623,129.582260 563.125366,129.083450
	C564.024292,127.451752 564.856934,125.771904 566.206543,124.843536
	C595.018188,105.023712 623.896545,85.300720 652.742920,65.531296
	C668.696167,54.598003 687.070251,50.545044 705.591248,47.066509
	C742.713989,40.094276 779.811951,32.955307 817.044983,26.618557
	C839.988159,22.713818 863.134766,19.943531 886.243164,17.094540
	C898.792053,15.547417 907.627686,20.977816 914.048706,32.185844
	C939.238403,76.155334 968.043762,117.783684 997.384033,159.048080
	C1000.466492,163.383240 1003.091675,168.040985 1006.012756,172.494125
	C1009.735168,178.168915 1009.983887,184.046829 1007.045227,190.042374
	C1003.531128,197.212204 999.991638,204.374832 996.244141,211.424164
	C978.277283,245.220825 960.326843,279.026855 942.160522,312.716309
	C937.431274,321.486755 931.884216,329.813568 926.872620,338.437103
	C926.065552,339.825806 926.099060,341.703094 925.872437,343.672791
z"/>
	<path fill="#ADD0E3" opacity="1.000000" stroke="none"
		  d="
M152.941849,673.926147
	C157.656021,665.318359 166.045609,661.002441 173.887100,656.081726
	C188.638840,646.824768 203.473740,637.700195 218.209305,628.417725
	C224.440414,624.492615 225.682358,624.258850 231.416412,628.664917
	C241.774979,636.624512 252.052689,644.692139 262.256104,652.849792
	C268.350861,657.722534 274.299286,662.784668 280.178375,667.916382
	C281.572083,669.132935 282.423401,670.970825 283.736115,673.067993
	C283.923645,673.804138 283.899323,673.995178 283.499390,674.276001
	C258.239258,676.912903 233.341202,679.336304 208.475189,682.052734
	C192.996277,683.743713 177.565765,685.878113 162.113541,687.813477
	C162.042297,687.495300 161.871475,687.245056 161.318588,686.648315
	C160.350311,684.821167 159.664536,683.408447 159.119293,681.913696
	C159.197540,681.908325 159.135223,681.984924 158.695984,681.887695
	C157.514404,681.897156 156.709732,682.080322 155.905029,682.263489
	C155.081223,681.969788 154.257401,681.676086 153.264343,680.750916
	C153.044006,678.054993 152.992935,675.990601 152.941849,673.926147
z"/>
	<path fill="#AAA8A3" opacity="1.000000" stroke="none"
		  d="
M1161.690674,579.393677
	C1162.175293,577.974243 1162.673340,576.099976 1163.890259,575.103882
	C1174.434692,566.472046 1185.065796,557.943970 1195.755737,549.492249
	C1206.498779,540.998596 1217.352173,532.644470 1228.133057,524.198425
	C1239.070312,515.629944 1250.010376,507.064545 1260.878540,498.409119
	C1264.117188,495.829987 1267.272827,493.107178 1270.199585,490.183044
	C1280.150879,480.240723 1279.812988,470.868042 1270.002930,460.547638
	C1260.409180,450.454651 1251.523560,439.686493 1241.884277,429.639374
	C1233.146118,420.531464 1224.085693,411.688843 1214.674438,403.281158
	C1201.240356,391.279724 1187.258789,379.893524 1173.692627,368.036804
	C1160.560303,356.559265 1147.580811,344.903625 1134.676025,333.170319
	C1121.395630,321.095551 1108.466064,308.625580 1094.921509,296.860016
	C1092.720581,294.948242 1087.891479,294.794983 1084.684448,295.552551
	C1075.975586,297.609863 1067.455322,300.501312 1058.945312,303.319092
	C1057.830688,303.688141 1057.213989,305.560913 1056.174072,306.969879
	C1049.390259,308.633545 1042.658203,309.604767 1036.231812,311.573273
	C1004.298828,321.354675 972.449524,331.408875 940.558350,341.327026
	C938.513794,341.962921 936.364624,342.262115 933.870728,342.560303
	C939.641785,339.946411 945.706848,337.194794 951.986755,335.081512
	C995.365723,320.483765 1038.816528,306.099182 1082.172119,291.432556
	C1089.393066,288.989777 1095.346191,289.817444 1101.060059,294.904572
	C1139.111450,328.782837 1177.677124,362.098907 1215.175537,396.576599
	C1237.212891,416.838837 1257.647095,438.850281 1278.660522,460.214386
	C1281.783081,463.389069 1284.264893,467.236816 1286.793335,470.943542
	C1290.838867,476.874268 1290.558228,480.765045 1284.968506,485.281586
	C1274.742554,493.544373 1264.207764,501.426117 1253.772461,509.428711
	C1224.972778,531.514709 1196.161255,553.585266 1167.341431,575.645081
	C1165.631226,576.954163 1163.807983,578.115662 1161.690674,579.393677
z"/>
	<path fill="#445C71" opacity="1.000000" stroke="none"
		  d="
M162.116592,688.210571
	C177.565765,685.878113 192.996277,683.743713 208.475189,682.052734
	C233.341202,679.336304 258.239258,676.912903 283.715332,674.615295
	C285.541382,675.302185 286.811859,676.198181 288.004517,676.104370
	C297.701996,675.341431 307.398743,674.508057 317.053284,673.344116
	C318.155121,673.211304 318.995514,670.909607 320.309326,669.770874
	C321.436584,670.167297 322.231995,670.665710 322.983704,670.606750
	C334.241425,669.723694 345.494843,668.783875 356.746460,667.824646
	C387.207153,665.227600 417.676422,662.722595 448.117859,659.915894
	C454.070160,659.367188 459.912445,657.625366 466.217163,656.595520
	C475.509186,656.993591 484.395935,657.511780 493.266357,657.310303
	C496.289093,657.241699 499.270691,655.362610 502.271088,654.310791
	C528.923828,652.400940 555.361755,647.555603 582.260864,648.872253
	C589.862061,649.244385 597.525574,648.343445 605.629639,648.118286
	C603.219849,649.068359 600.390137,650.409424 597.454224,650.708801
	C572.352112,653.269104 547.225281,655.585999 522.117310,658.090576
	C508.741791,659.424805 495.399506,661.093262 482.022827,662.414673
	C468.806396,663.720276 455.557831,664.698547 442.337799,665.970520
	C431.598083,667.003784 420.883484,668.294983 410.151001,669.406616
	C398.260468,670.638123 386.367889,671.855774 374.466095,672.971619
	C353.641541,674.924072 332.814117,676.849060 311.978180,678.674988
	C301.883972,679.559692 291.757721,680.078857 281.663940,680.967468
	C264.796814,682.452393 247.944519,684.105225 231.085251,685.679321
	C219.345917,686.775391 207.610092,687.913391 195.863663,688.927979
	C187.425659,689.656860 178.980133,690.443909 170.522263,690.714783
	C167.746735,690.803711 164.921921,689.353882 162.116592,688.210571
z"/>
	<path fill="#B5D3E3" opacity="1.000000" stroke="none"
		  d="
M681.397888,640.697632
	C678.923523,638.033691 676.918213,635.437866 675.287048,632.445984
	C678.145447,631.230957 680.999695,630.942505 683.055237,629.508850
	C699.181213,618.261292 715.257996,606.935974 731.109131,595.306335
	C735.703064,591.935913 740.125549,587.955322 743.511230,583.421509
	C746.828674,578.979126 748.803467,573.512512 751.191406,568.412903
	C751.793518,567.127136 751.722839,565.526245 751.961365,564.070190
	C759.271790,570.092896 767.554565,575.070679 772.811646,584.044983
	C767.595581,593.171692 759.848328,597.338867 749.967102,598.058105
	C747.068604,598.269104 743.881592,598.612244 741.419800,599.969910
	C733.589233,604.288513 726.104980,609.076233 721.607666,617.411560
	C720.404358,619.641846 717.520508,620.920532 715.562866,622.797424
	C710.502014,627.649597 701.615417,629.581055 702.841736,639.286011
	C702.841736,639.286011 702.733337,639.718445 702.578918,639.844055
	C702.424500,639.969666 702.530334,639.901550 702.530334,639.901550
	C695.642517,640.189575 688.754700,640.477661 681.397888,640.697632
z"/>
	<path fill="#D9DBD9" opacity="1.000000" stroke="none"
		  d="
M703.306396,639.438904
	C701.615417,629.581055 710.502014,627.649597 715.562866,622.797424
	C717.520508,620.920532 720.404358,619.641846 721.607666,617.411560
	C726.104980,609.076233 733.589233,604.288513 741.419800,599.969910
	C743.881592,598.612244 747.068604,598.269104 749.967102,598.058105
	C759.848328,597.338867 767.595581,593.171692 772.963745,584.355225
	C774.456055,584.845703 775.934082,585.601746 777.298950,586.525146
	C783.468323,590.698792 783.395630,590.806763 779.947754,597.358398
	C778.239014,600.605347 777.526794,604.509644 772.704041,604.862000
	C771.912781,604.919800 771.250732,606.746704 770.116333,606.543030
	C765.501709,608.143982 760.414673,608.998352 756.395874,611.541016
	C751.719055,614.500000 748.016541,618.981140 743.818481,622.720032
	C739.912781,626.198547 737.187866,630.041870 739.051514,635.982483
	C731.507568,637.501526 724.001282,638.894653 716.433044,639.717590
	C712.266235,640.170654 707.995178,639.665161 703.306396,639.438904
z"/>
	<path fill="#C5C7C5" opacity="1.000000" stroke="none"
		  d="
M514.452759,162.789520
	C515.434753,169.076218 510.325500,171.790726 506.379761,174.608398
	C487.039520,188.419510 467.385712,201.790283 447.932770,215.444977
	C403.056488,246.945145 358.191559,278.461853 313.406036,310.090790
	C294.262878,323.610291 275.344604,337.447968 256.274048,351.070953
	C254.572571,352.286377 252.500565,352.983154 250.225800,353.912415
	C262.472565,343.934570 274.766174,333.513062 287.773773,324.075562
	C338.262665,287.443878 388.886261,250.995819 439.650909,214.747162
	C463.200256,197.931671 487.189697,181.732529 510.973846,165.245667
	C512.049805,164.499802 513.068604,163.671478 514.452759,162.789520
z"/>
	<path fill="#B4C7AE" opacity="1.000000" stroke="none"
		  d="
M62.303085,588.374146
	C63.298622,588.243347 64.316200,588.567139 65.662682,589.338501
	C67.031670,590.594666 68.480087,592.326050 69.050560,592.073547
	C77.519226,588.325562 85.855644,584.280457 94.256432,580.376770
	C101.206108,577.147522 102.138664,577.905884 107.616676,582.922668
	C111.239441,586.240417 115.991066,589.245972 120.689674,590.229004
	C126.213341,591.384583 132.226578,590.200134 138.163300,590.340698
	C138.537949,591.745972 138.776810,592.841003 138.878174,594.308472
	C133.547806,595.777832 128.402084,597.352295 123.152115,597.870544
	C112.662086,598.906128 102.982361,602.174622 93.249687,606.094177
	C83.828255,609.888489 73.767250,612.094727 63.580765,614.999390
	C61.078194,614.324585 58.982014,613.648804 56.885834,612.973022
	C58.698933,604.924927 60.512032,596.876892 62.303085,588.374146
z"/>
	<path fill="#A5A39E" opacity="1.000000" stroke="none"
		  d="
M1015.189880,615.587158
	C1016.180969,614.524963 1017.537354,613.158936 1018.989197,613.048523
	C1038.612671,611.555786 1058.242676,610.127869 1077.886475,608.937317
	C1084.567871,608.532410 1091.327026,609.252930 1097.986328,608.693176
	C1104.379395,608.155762 1110.690063,605.716553 1117.035400,605.722656
	C1130.127441,605.735229 1137.059448,595.791077 1146.166870,589.287109
	C1150.558960,586.150574 1155.025269,583.118103 1159.832275,580.101196
	C1157.992432,582.602722 1155.965088,585.250854 1153.520630,587.431213
	C1149.932495,590.631592 1145.713745,593.168152 1142.348633,596.566772
	C1131.748779,607.272339 1118.967163,610.704041 1104.126953,611.129150
	C1078.413452,611.865723 1052.745605,614.157410 1027.054321,615.729858
	C1023.247620,615.962830 1019.418396,615.830444 1015.189880,615.587158
z"/>
	<path fill="#445B70" opacity="1.000000" stroke="none"
		  d="
M99.225479,637.163757
	C99.225494,637.163757 99.114700,637.533630 99.092598,637.725098
	C88.394058,639.095276 77.716301,640.262268 67.041916,641.459351
	C63.590939,641.846375 60.110794,642.796997 56.719204,642.530884
	C55.102718,642.404053 53.662312,640.032410 52.517532,638.303406
	C58.243290,636.474915 64.507004,637.015259 68.045868,631.367798
	C72.287041,630.536011 77.438416,631.654724 79.482666,625.999390
	C81.271118,625.981262 83.084061,625.467163 84.086197,626.147522
	C89.247124,629.650940 94.199989,633.460815 99.225479,637.163757
z"/>
	<path fill="#A5A39E" opacity="1.000000" stroke="none"
		  d="
M152.594788,673.916626
	C152.992935,675.990601 153.044006,678.054993 153.066071,680.482788
	C151.532883,680.317566 149.745544,680.144043 148.568512,679.205322
	C137.295670,670.214966 126.116806,661.106567 114.947502,651.987244
	C114.213722,651.388123 113.779198,650.422424 113.126877,649.296265
	C119.185272,652.630920 125.413109,656.154419 131.435532,659.999634
	C138.466553,664.488770 145.318207,669.258972 152.594788,673.916626
z"/>
	<path fill="#A2A19D" opacity="1.000000" stroke="none"
		  d="
M561.808044,129.266876
	C559.643066,134.059799 558.530334,139.581070 551.140076,140.451080
	C547.318909,140.900894 543.955261,144.935745 540.308533,147.229462
	C532.457397,152.167694 524.556946,157.027420 516.278931,161.900665
	C518.403137,159.625641 520.743652,157.115982 523.478882,155.157333
	C534.469788,147.286804 545.568481,139.566254 556.667786,131.848358
	C558.143433,130.822220 559.851013,130.129669 561.808044,129.266876
z"/>
	<path fill="#6C938B" opacity="1.000000" stroke="none"
		  d="
M67.813408,631.097168
	C64.507004,637.015259 58.243290,636.474915 52.504864,637.925171
	C51.781288,636.338135 50.877373,634.623779 51.207439,633.194519
	C52.737888,626.567200 54.610634,620.018982 56.623322,613.207764
	C58.982014,613.648804 61.078194,614.324585 63.300552,615.276367
	C61.334511,616.398560 57.961838,616.728943 57.376705,618.181885
	C55.115437,623.796875 57.856262,627.496948 63.906429,627.958191
	C65.886948,628.109192 67.885605,628.022217 69.705139,628.310913
	C68.960678,629.417603 68.387039,630.257385 67.813408,631.097168
z"/>
	<path fill="#445C71" opacity="1.000000" stroke="none"
		  d="
M155.959167,682.597046
	C156.709732,682.080322 157.514404,681.897156 158.672852,681.870728
	C159.026611,682.027466 158.978760,681.995667 158.978760,681.995667
	C159.664536,683.408447 160.350311,684.821167 161.101181,686.568115
	C159.448624,685.578491 157.730957,684.254578 155.959167,682.597046
z"/>
	<path fill="#D9DBD9" opacity="1.000000" stroke="none"
		  d="
M702.548279,639.963989
	C702.530334,639.901550 702.424500,639.969666 702.388062,639.959229
	C702.351624,639.948792 702.566223,640.026428 702.548279,639.963989
z"/>
	<path fill="#CCCECD" opacity="1.000000" stroke="none"
		  d="
M977.862244,190.934875
	C981.967957,191.863739 985.322510,193.579224 987.950073,197.279846
	C989.975220,200.131927 990.565979,202.569702 989.107788,205.510773
	C983.942688,215.928452 978.739441,226.327667 973.478333,236.697174
	C967.791016,247.906723 962.104797,259.118256 956.264343,270.248260
	C951.322388,279.665833 946.413025,289.115936 941.039124,298.287903
	C932.402039,313.029480 923.335449,327.519012 914.619995,342.215637
	C913.592651,343.947968 913.632019,346.312988 913.099976,348.681213
	C911.700317,349.948547 910.514099,351.301788 909.033508,351.830261
	C895.901855,356.517181 882.799561,361.312073 869.526855,365.570892
	C856.141663,369.865784 842.508057,373.382385 829.097534,377.602966
	C806.446716,384.731598 783.885132,392.143677 761.292114,399.455353
	C760.670044,399.656647 760.117249,400.072052 758.975098,400.803223
	C755.189758,401.779083 751.835571,401.954224 748.753235,402.961456
	C727.123352,410.029968 705.553650,417.282288 683.956299,424.450470
	C672.316528,428.313629 660.660217,432.126740 649.007935,435.551025
	C648.713684,433.042816 648.422791,430.946075 648.120239,428.476685
	C649.210388,423.213654 649.844482,418.158020 651.502991,413.464294
	C656.196533,400.180328 661.348816,387.059113 666.235168,373.842255
	C667.834473,369.516205 666.478516,367.917114 661.974548,368.527832
	C660.495117,368.728394 659.037476,369.083557 657.562134,369.320465
	C645.476440,371.261200 633.386536,373.176514 621.303101,375.131256
	C617.108948,375.809753 612.641235,375.885742 608.815125,377.478180
	C603.937378,379.508331 599.583557,382.797394 594.758606,385.374146
	C594.174377,384.538788 593.376099,383.670227 593.566772,383.238495
	C595.801208,378.180084 598.138184,373.165131 600.541748,368.183929
	C602.601929,363.914307 604.783325,359.703156 606.911011,355.466095
	C616.031616,348.869598 625.806458,343.960785 636.722473,340.592163
	C646.835205,337.471466 656.228210,332.023590 665.947510,327.621277
	C675.300781,323.384827 684.733276,319.315887 693.998291,314.895203
	C698.757996,312.624207 703.042419,309.312195 707.873047,307.245209
	C715.043396,304.177216 722.654297,302.136932 729.818054,299.055695
	C747.214905,291.573059 764.435913,283.682831 781.780579,276.077240
	C790.511108,272.248932 799.393738,268.768280 808.135864,264.965637
	C813.171509,262.775299 817.988770,260.079468 823.039246,257.927643
	C830.016785,254.954742 837.179810,252.415726 844.145874,249.417725
	C847.360046,248.034393 850.295715,246.003754 853.926453,244.375290
	C857.267212,243.492645 860.039307,242.501846 862.811035,241.509888
	C867.306641,239.901031 871.839417,238.386780 876.281677,236.642105
	C878.528687,235.759628 880.829346,234.745804 882.731018,233.298965
	C890.309753,227.532990 898.676208,223.658554 908.190796,222.917984
	C912.470764,222.584824 915.444763,220.365616 915.530212,216.868469
	C921.997253,215.044617 928.226013,213.301834 934.438843,211.504013
	C934.845947,211.386200 935.476135,210.773972 935.421387,210.514389
	C934.492371,206.112122 938.217773,207.801834 940.244141,207.175125
	C943.250854,206.535110 946.085754,205.878983 948.746887,204.795715
	C952.298584,203.349960 955.661194,201.440674 959.209534,199.985092
	C961.467834,199.058731 964.098816,198.949631 966.238770,197.845993
	C970.237732,195.783600 974.000916,193.264130 977.862244,190.934875
z"/>
	<path fill="#EAEBEC" opacity="1.000000" stroke="none"
		  d="
M939.995056,206.968872
	C938.217773,207.801834 934.492371,206.112122 935.421387,210.514389
	C935.476135,210.773972 934.845947,211.386200 934.438843,211.504013
	C928.226013,213.301834 921.997253,215.044617 915.530212,216.868469
	C915.444763,220.365616 912.470764,222.584824 908.190796,222.917984
	C898.676208,223.658554 890.309753,227.532990 882.731018,233.298965
	C880.829346,234.745804 878.528687,235.759628 876.281677,236.642105
	C871.839417,238.386780 867.306641,239.901031 862.811035,241.509888
	C860.039307,242.501846 857.267212,243.492645 854.247620,244.237244
	C856.098389,241.359482 857.966614,238.495560 860.343628,236.146545
	C865.094055,231.451935 865.277161,230.173248 859.625916,226.974838
	C855.036804,224.377548 850.929504,221.839996 849.208069,216.323120
	C848.710205,214.727570 846.033142,213.399429 844.087280,212.744263
	C837.820435,210.634140 831.302429,209.220612 825.153687,206.835861
	C823.016602,206.007019 820.404968,203.259430 820.189087,201.163727
	C819.257263,192.116760 815.555420,189.163635 805.373352,194.192780
	C799.895142,196.898621 795.892090,196.598770 791.166870,192.826645
	C789.647217,191.613586 787.846802,190.550842 786.001465,189.984818
	C780.402039,188.267288 775.849365,185.398438 772.406616,180.467621
	C771.247681,178.807709 768.648193,177.633759 766.527161,177.260529
	C759.530457,176.029388 752.426758,175.416794 745.412292,174.271851
	C740.472900,173.465622 739.552002,171.754868 742.266479,167.724655
	C744.590637,164.273956 743.917114,162.013321 741.067078,159.621460
	C733.610413,153.363602 729.339783,143.886108 720.180603,139.198883
	C718.773132,138.478592 717.922546,134.790680 718.314270,132.765366
	C719.850464,124.823837 715.331848,117.691048 707.303894,117.145554
	C703.332825,116.875717 701.443420,115.195206 699.849731,111.803574
	C699.072205,110.148766 696.705811,108.226791 695.019714,108.189659
	C688.065308,108.036530 683.817627,105.021599 680.612427,98.768364
	C677.305237,92.316147 673.082520,86.195778 668.446472,80.605095
	C664.656433,76.034477 658.951111,77.842400 653.939148,78.713562
	C651.845520,79.077469 649.875305,80.151497 647.486328,80.936707
	C644.987366,80.970779 642.851074,80.970779 639.587219,80.970779
	C650.992859,73.414024 661.691162,66.325897 671.687256,59.703068
	C674.325256,61.033428 676.247681,62.002918 678.957336,62.954948
	C684.903992,61.624039 690.003662,59.947811 695.237305,59.084534
	C702.579346,57.873489 710.049561,57.457634 717.413391,56.356667
	C728.080750,54.761795 738.802551,52.075085 749.467529,55.186367
	C755.922424,57.069458 761.997192,60.317421 768.151672,63.149956
	C773.634583,65.673378 780.922119,65.436707 783.048584,73.323273
	C783.454102,74.827187 786.565552,75.546257 788.349731,76.744804
	C792.449890,79.499199 796.411926,82.469772 800.600830,85.078316
	C804.029724,87.213615 807.533081,89.989441 811.313293,90.617935
	C816.649048,91.505074 820.237183,94.255310 824.160217,97.490486
	C829.331238,101.754921 834.998352,105.543358 840.863220,108.795120
	C844.545593,110.836784 849.165466,111.120209 853.036926,112.903984
	C858.709473,115.517609 863.938293,119.100403 869.626587,121.672218
	C878.747742,125.796036 885.527832,131.673599 887.853394,141.884079
	C888.238953,143.576889 889.589844,145.871384 891.019958,146.364624
	C897.740906,148.682556 902.156738,154.485657 910.033691,155.988144
	C918.313721,157.567566 925.940613,163.882645 933.218811,169.025772
	C940.181335,173.945908 946.313049,180.037872 952.840332,185.579025
	C956.866638,188.997009 957.062683,193.144089 952.843872,196.454575
	C949.994019,198.690765 946.506165,200.103790 943.592651,202.273010
	C942.071350,203.405640 941.174133,205.376556 939.995056,206.968872
z"/>
	<path fill="#B5C9AF" opacity="1.000000" stroke="none"
		  d="
M444.041077,422.057861
	C452.703857,412.450531 461.398651,402.871857 470.022980,393.230133
	C490.253876,370.612457 508.208313,346.275085 524.549133,320.732147
	C526.426331,317.797913 528.012756,314.674072 529.659607,311.598328
	C530.190796,310.606262 530.483521,309.486511 531.436951,306.968170
	C526.705322,306.968170 522.656982,306.670197 518.669373,307.035492
	C512.090881,307.638123 506.699219,305.523956 501.767731,301.288422
	C496.561890,296.817261 496.072113,294.422821 501.134186,289.515015
	C506.501862,284.310852 512.256836,279.491089 518.000793,274.692841
	C537.018005,258.806793 556.143860,243.050888 575.152649,227.154816
	C585.366760,218.613235 587.809143,219.282227 590.999329,231.935349
	C597.643921,258.289825 604.285950,284.644928 610.918762,311.002350
	C612.847778,318.667999 611.670410,320.158844 604.199585,323.205780
	C597.130310,326.088959 591.052551,324.672546 584.809082,321.053986
	C579.431519,317.937378 578.560303,318.390442 575.258118,323.566223
	C564.262634,340.800354 553.242737,358.018951 542.258545,375.260284
	C541.467285,376.502289 540.888000,377.879395 539.903564,379.600281
	C535.776062,381.520782 537.180481,383.130432 540.029541,384.999695
	C538.033447,384.999695 536.555359,384.999695 534.850037,385.121521
	C534.412354,385.505005 534.201843,385.766693 533.993652,386.008453
	C533.995972,385.988525 534.031433,386.007446 533.629578,385.949524
	C525.699951,387.844269 518.172119,389.796936 510.833466,391.700531
	C511.976288,392.013031 513.320923,392.380707 515.483521,392.972076
	C514.126160,394.192200 513.463135,395.123718 512.561401,395.548492
	C498.299164,402.266388 484.125519,409.193115 469.675293,415.483215
	C461.156891,419.191193 453.400940,425.633087 443.202820,423.859711
	C443.521393,423.072998 443.781250,422.565430 444.041077,422.057861
z"/>
	<path fill="#C5C8CA" opacity="1.000000" stroke="none"
		  d="
M535.077271,384.999695
	C536.555359,384.999695 538.033447,384.999695 540.029541,384.999695
	C537.180481,383.130432 535.776062,381.520782 539.978149,379.935577
	C547.095703,379.118713 553.866760,378.579132 559.420959,373.906067
	C560.335754,373.136383 561.968201,373.289703 563.133118,372.732391
	C565.439819,371.628876 567.576782,370.153442 569.918640,369.144592
	C574.292542,367.260406 578.729492,365.509338 583.200073,363.865936
	C590.810791,361.068207 598.467834,358.396606 606.508179,355.569031
	C604.783325,359.703156 602.601929,363.914307 600.541748,368.183929
	C598.138184,373.165131 595.801208,378.180084 593.566772,383.238495
	C593.376099,383.670227 594.174377,384.538788 594.680298,385.747711
	C594.013306,387.455597 593.140869,389.642670 592.351379,389.613098
	C588.286987,389.461090 587.039856,393.289795 584.230713,394.759491
	C578.276978,397.874451 576.666504,404.153015 574.156006,409.419830
	C567.994263,422.346497 562.666504,435.670654 556.647827,448.925537
	C548.112305,453.055054 539.770691,456.465149 528.894104,455.894836
	C529.139893,448.660034 529.165710,441.686188 529.687134,434.749603
	C530.029907,430.189606 531.498108,425.702789 531.713928,421.147797
	C531.947205,416.221893 531.235107,411.257233 531.076050,406.304932
	C530.945312,402.234375 531.020142,398.157196 531.064514,393.721161
	C532.093872,390.908722 533.062683,388.458099 534.031433,386.007446
	C534.031433,386.007446 533.995972,385.988525 534.216309,385.886078
	C534.650208,385.522339 534.863770,385.261017 535.077271,384.999695
z"/>
	<path fill="#CACCCC" opacity="1.000000" stroke="none"
		  d="
M138.027496,590.030457
	C132.226578,590.200134 126.213341,591.384583 120.689674,590.229004
	C115.991066,589.245972 111.239441,586.240417 107.616676,582.922668
	C102.138664,577.905884 101.206108,577.147522 94.256432,580.376770
	C85.855644,584.280457 77.519226,588.325562 69.050560,592.073547
	C68.480087,592.326050 67.031670,590.594666 65.972137,589.435913
	C81.721313,582.408203 97.489555,575.729614 113.258690,569.053162
	C125.030312,564.069214 136.885559,559.271362 148.542206,554.031677
	C154.821198,551.209290 160.654358,547.401489 166.907288,544.511292
	C169.326660,543.393066 172.425217,543.844177 175.073090,543.086548
	C176.956116,542.547791 178.602753,541.182800 180.895523,540.255981
	C186.297165,539.215759 191.158188,538.106140 196.162155,537.292358
	C196.459061,540.368469 196.585464,543.150635 196.774124,545.928528
	C196.995682,549.190613 198.125076,552.663025 197.370987,555.670715
	C194.577850,566.811462 186.173187,573.678955 176.587708,578.314575
	C169.412323,581.784546 161.098419,582.873291 153.329636,585.152466
	C148.193939,586.659180 143.125854,588.396423 138.027496,590.030457
z"/>
	<path fill="#D9DAD9" opacity="1.000000" stroke="none"
		  d="
M196.019196,536.996521
	C191.158188,538.106140 186.297165,539.215759 181.191010,540.098755
	C184.399384,532.711670 191.046524,529.811157 197.824829,526.890259
	C204.171005,524.155579 210.295044,520.909424 216.556580,517.973022
	C221.801651,515.513245 227.062897,513.079407 232.388474,510.801239
	C252.237335,502.310394 272.200592,494.080536 291.943085,485.350616
	C300.407837,481.607605 308.348907,476.697510 316.692993,472.658752
	C322.662384,469.769409 328.936615,467.516693 335.022400,464.859894
	C357.078064,455.231354 378.996979,445.277924 401.198059,435.998749
	C413.759308,430.748596 426.760254,426.546539 439.595612,421.963196
	C440.745880,421.552429 442.134857,421.810272 443.727051,421.907715
	C443.781250,422.565430 443.521393,423.072998 443.023163,424.143280
	C440.872833,425.862762 438.960938,427.019592 436.712524,428.275909
	C428.451569,431.801239 420.513184,435.195282 412.605072,438.658447
	C377.772461,453.912262 342.960236,469.212616 308.117371,484.442963
	C286.207825,494.019897 264.071747,503.103210 242.386703,513.161194
	C226.634521,520.467407 211.454391,529.006897 196.019196,536.996521
z"/>
	<path fill="#D4D6D6" opacity="1.000000" stroke="none"
		  d="
M608.150757,105.829254
	C605.150757,103.977051 606.277893,101.871864 608.156799,100.678268
	C615.789551,95.829468 623.620667,91.293907 631.318054,86.544731
	C632.516052,85.805611 633.327820,84.467384 634.447937,83.567833
	C635.719727,82.546463 636.775513,79.684601 638.888306,83.108322
	C636.186157,89.852158 632.129150,94.496399 624.470764,94.452133
	C623.892151,94.448784 622.960999,94.751801 622.783264,95.165619
	C620.067444,101.489143 613.221191,102.184090 608.150757,105.829254
z"/>
	<path fill="#A2A19D" opacity="1.000000" stroke="none"
		  d="
M566.317078,129.990463
	C566.772949,125.970306 569.958435,127.282341 572.877808,127.069405
	C571.085449,128.059799 568.858765,129.032257 566.317078,129.990463
z"/>
	<path fill="#96C7E0" opacity="1.000000" stroke="none"
		  d="
M751.678833,563.887512
	C751.722839,565.526245 751.793518,567.127136 751.191406,568.412903
	C748.803467,573.512512 746.828674,578.979126 743.511230,583.421509
	C740.125549,587.955322 735.703064,591.935913 731.109131,595.306335
	C715.257996,606.935974 699.181213,618.261292 683.055237,629.508850
	C680.999695,630.942505 678.145447,631.230957 675.251099,632.091797
	C656.946960,616.012085 639.127502,599.806702 621.138306,583.791992
	C602.278076,567.001892 583.224731,550.428833 564.321838,533.686340
	C558.847534,528.837769 553.666931,523.658203 548.211426,518.787415
	C546.425110,517.192505 544.199829,516.087341 542.164734,514.774536
	C541.751465,514.507935 541.186951,514.412842 540.867249,514.073669
	C536.540344,509.483063 532.460388,504.634186 527.878235,500.317261
	C523.564880,496.253418 518.726013,492.747986 514.127686,488.985504
	C512.844788,487.935791 511.594971,486.845642 510.232574,485.150024
	C510.661285,483.919281 511.068878,483.013367 511.731323,482.751007
	C520.852844,479.139313 529.997253,475.584351 539.162476,472.084778
	C543.746155,470.334564 548.383545,468.724945 553.377319,467.020660
	C568.665527,461.919037 583.510498,456.652527 598.506958,451.860352
	C606.047241,449.450836 613.862976,447.903351 621.849976,446.057922
	C633.010742,456.621887 643.734680,467.245728 654.783081,477.520599
	C664.490173,486.548157 674.563843,495.181427 684.469849,503.995361
	C690.428467,509.297089 696.322327,514.672974 702.340759,519.905762
	C712.176941,528.457886 722.054016,536.963928 731.993347,545.395630
	C735.177673,548.096924 738.613647,550.501587 741.934448,553.041992
	C745.088440,556.596252 748.242371,560.150574 751.678833,563.887512
z"/>
	<path fill="#D3B2A1" opacity="1.000000" stroke="none"
		  d="
M649.011353,435.962463
	C660.660217,432.126740 672.316528,428.313629 683.956299,424.450470
	C705.553650,417.282288 727.123352,410.029968 748.753235,402.961456
	C751.835571,401.954224 755.189758,401.779083 758.732910,401.060699
	C767.188843,408.237823 775.361633,415.538330 783.464661,422.915375
	C801.760193,439.571655 820.096680,456.184448 838.238892,473.006439
	C842.337830,476.807129 845.711853,481.389709 849.808411,486.031921
	C850.386292,486.724091 850.633362,486.925354 850.938538,487.055267
	C850.938538,487.055267 850.904114,487.067078 850.932007,487.509857
	C849.862183,494.460022 848.712097,500.959137 847.684326,507.477539
	C846.938110,512.209412 844.505798,515.488342 840.468384,518.192505
	C826.830383,527.326721 813.280090,536.604370 799.954163,546.185913
	C794.617798,550.022827 789.952148,554.792603 784.981201,559.137817
	C781.675842,559.631531 780.645630,557.240234 778.658875,555.182495
	C773.105042,549.429993 766.686951,544.511841 760.150024,538.803589
	C753.544800,532.816040 747.406494,527.281555 741.252502,521.764587
	C734.842041,516.017822 728.439270,510.261993 721.992676,504.555817
	C707.982117,492.154327 693.793335,479.949127 679.968750,467.344208
	C669.088013,457.423462 658.643311,447.024475 648.142944,436.661224
	C648.492554,436.266022 648.736023,436.091980 649.011353,435.962463
z"/>
	<path fill="#EAEBEC" opacity="1.000000" stroke="none"
		  d="
M648.004944,436.837952
	C658.643311,447.024475 669.088013,457.423462 679.968750,467.344208
	C693.793335,479.949127 707.982117,492.154327 721.992676,504.555817
	C728.439270,510.261993 734.842041,516.017822 741.252502,521.764587
	C747.406494,527.281555 753.544800,532.816040 759.859497,538.626831
	C758.681335,546.562378 752.837158,549.427246 746.420410,551.658020
	C745.179749,552.089294 743.888550,552.375061 742.277588,552.885010
	C738.613647,550.501587 735.177673,548.096924 731.993347,545.395630
	C722.054016,536.963928 712.176941,528.457886 702.340759,519.905762
	C696.322327,514.672974 690.428467,509.297089 684.469849,503.995361
	C674.563843,495.181427 664.490173,486.548157 654.783081,477.520599
	C643.734680,467.245728 633.010742,456.621887 621.783691,445.713348
	C622.464661,444.615906 623.428528,443.727814 624.564087,443.331665
	C630.632263,441.214569 636.743408,439.220337 643.136597,437.295471
	C644.957275,437.217499 646.481140,437.027740 648.004944,436.837952
z"/>
	<path fill="#D5D7D4" opacity="1.000000" stroke="none"
		  d="
M785.161987,559.407349
	C789.952148,554.792603 794.617798,550.022827 799.954163,546.185913
	C813.280090,536.604370 826.830383,527.326721 840.468384,518.192505
	C844.505798,515.488342 846.938110,512.209412 847.684326,507.477539
	C848.712097,500.959137 849.862183,494.460022 850.932861,487.528046
	C852.921143,488.183136 854.919250,489.296661 856.957336,490.331512
	C858.524475,491.127197 860.141846,491.823792 862.702454,493.012817
	C863.361572,500.293121 870.650879,504.080475 876.834900,508.746338
	C878.534851,510.029022 880.644714,510.827026 882.175415,512.264038
	C886.006165,515.860107 885.353943,520.157837 881.026611,523.066345
	C864.941467,533.877563 847.695374,543.104980 834.126648,557.375366
	C833.020630,558.538574 831.340149,559.140198 829.980347,560.080566
	C826.083435,562.775452 822.359619,565.755493 818.295593,568.164429
	C813.696899,570.890381 808.958191,573.568420 803.945862,575.297913
	C802.367126,575.842651 799.364929,573.640503 797.615479,572.038818
	C793.337708,568.122314 789.410828,563.822510 785.161987,559.407349
z"/>
	<path fill="#D5D7D4" opacity="1.000000" stroke="none"
		  d="
M850.822754,486.839386
	C850.633362,486.925354 850.386292,486.724091 850.060791,486.252014
	C850.243774,486.162476 850.504700,486.352814 850.822754,486.839386
z"/>
	<path fill="#F5F5F6" opacity="1.000000" stroke="none"
		  d="
M365.982483,531.552612
	C370.108521,535.287659 374.143188,539.129883 378.377106,542.738342
	C393.381805,555.526672 408.439178,568.253418 423.513977,580.959045
	C426.667755,583.617249 430.018250,586.041565 433.186188,588.683899
	C433.758423,589.161255 433.882294,590.176147 433.994019,590.434998
	C454.819763,607.621033 474.755676,625.471924 493.711792,645.030212
	C491.658264,648.139465 490.918793,652.320068 486.419617,651.954529
	C478.245483,651.290405 469.725250,654.829102 461.658386,649.829712
	C460.989441,649.362061 460.559540,649.021851 460.058960,648.355103
	C459.524353,647.344910 459.167542,646.547668 458.580780,645.994141
	C447.574158,635.611877 436.593903,625.200562 425.491547,614.921265
	C419.069641,608.975464 412.624573,603.029724 405.869141,597.474060
	C390.864288,585.134094 375.601135,573.108704 360.555023,560.818237
	C352.209381,554.001099 344.088806,546.908325 336.021423,539.607178
	C339.103912,538.120300 342.031769,536.966003 345.344666,535.837891
	C346.044617,535.791748 346.358582,535.714905 346.674652,535.647827
	C353.110443,534.282043 359.546478,532.917419 365.982483,531.552612
z"/>
	<path fill="#6A9B91" opacity="1.000000" stroke="none"
		  d="
M366.114960,531.187317
	C359.546478,532.917419 353.110443,534.282043 346.674652,535.647827
	C346.358582,535.714905 346.044617,535.791748 345.399292,535.506592
	C346.522705,533.586487 347.773315,531.747803 349.462250,530.504700
	C363.650513,520.061890 377.907837,509.712738 392.186951,499.394257
	C393.214844,498.651459 394.577789,498.372314 395.847870,498.293610
	C397.184540,499.816284 398.612183,502.014374 399.708069,501.859863
	C409.981079,500.411285 420.497589,499.551361 430.351532,496.566406
	C441.865143,493.078644 452.557129,486.900146 464.050537,483.315826
	C470.953430,481.163116 478.718262,481.208008 486.069031,481.383484
	C488.444275,481.440216 490.734558,485.054688 493.063721,487.041718
	C489.052979,489.128174 485.042206,491.214630 481.077148,493.667542
	C476.743896,494.629181 472.155212,494.578888 468.019714,495.922943
	C438.428314,505.540344 408.913910,515.396240 379.416809,525.300781
	C374.916443,526.811951 370.631836,528.965576 366.114960,531.187317
z"/>
	<path fill="#C2C5C8" opacity="1.000000" stroke="none"
		  d="
M461.897400,649.957031
	C469.725250,654.829102 478.245483,651.290405 486.419617,651.954529
	C490.918793,652.320068 491.658264,648.139465 493.923309,645.295105
	C498.792358,645.963135 500.809998,649.418518 502.184814,653.932434
	C499.270691,655.362610 496.289093,657.241699 493.266357,657.310303
	C484.395935,657.511780 475.509186,656.993591 466.048889,656.361084
	C464.278412,653.962341 463.087921,651.959717 461.897400,649.957031
z"/>
	<path fill="#AED1E4" opacity="1.000000" stroke="none"
		  d="
M335.866821,539.939758
	C344.088806,546.908325 352.209381,554.001099 360.555023,560.818237
	C375.601135,573.108704 390.864288,585.134094 405.869141,597.474060
	C412.624573,603.029724 419.069641,608.975464 425.491547,614.921265
	C436.593903,625.200562 447.574158,635.611877 458.580780,645.994141
	C459.167542,646.547668 459.524353,647.344910 459.874054,648.718750
	C458.144592,650.269531 456.568024,651.772217 454.906921,651.872375
	C449.608063,652.191650 444.270844,651.833008 438.963196,652.068298
	C436.911713,652.159241 434.410156,652.579224 432.971863,653.833496
	C430.006775,656.419189 427.671967,655.947876 425.165192,653.569580
	C418.216736,646.977295 411.259064,640.394409 404.350250,633.760742
	C396.924988,626.631104 388.809509,622.419983 378.320953,626.989990
	C374.826477,628.512634 371.271759,629.957886 367.633057,631.075317
	C361.082031,633.087097 355.273895,635.791382 352.342590,642.669800
	C351.859711,643.802856 349.705566,644.751709 348.257355,644.855103
	C341.499786,645.337463 335.331390,647.147522 329.629974,650.972900
	C327.725128,652.250977 324.622070,653.309509 322.668823,652.659363
	C316.475555,650.597961 312.848267,653.274536 309.837952,658.062500
	C309.087372,658.675720 308.336792,659.288940 307.983917,659.577271
	C304.895020,656.166016 302.074310,652.600891 298.785461,649.538635
	C295.104858,646.111694 290.989807,643.153015 287.081848,639.968445
	C274.935974,630.071045 262.821594,620.134888 250.650558,610.268616
	C241.385986,602.758545 231.970459,595.431885 222.809860,587.798279
	C220.514236,585.885315 218.940979,583.105530 217.203842,580.058350
	C218.966736,578.597046 220.502335,577.638550 222.166519,577.034241
	C229.426697,574.398193 236.724243,571.865051 244.401932,569.230042
	C259.545593,564.141113 274.295563,559.116699 289.420654,554.016174
	C296.379913,551.936462 302.963409,549.930725 309.548431,547.929932
	C318.320618,545.264465 327.093964,542.602966 335.866821,539.939758
z"/>
	<path fill="#99B9CD" opacity="1.000000" stroke="none"
		  d="
M244.008240,569.294617
	C236.724243,571.865051 229.426697,574.398193 222.166519,577.034241
	C220.502335,577.638550 218.966736,578.597046 217.186127,579.693359
	C200.943848,584.325562 184.887390,588.656982 168.262985,592.663452
	C165.375244,591.652039 162.979446,590.219177 160.752670,590.445984
	C156.994659,590.828613 153.389908,592.532410 149.634247,593.176086
	C146.153564,593.772705 142.559692,593.708923 139.015671,593.935974
	C138.776810,592.841003 138.537949,591.745972 138.163300,590.340698
	C143.125854,588.396423 148.193939,586.659180 153.329636,585.152466
	C161.098419,582.873291 169.412323,581.784546 176.587708,578.314575
	C186.173187,573.678955 194.577850,566.811462 197.370987,555.670715
	C198.125076,552.663025 196.995682,549.190613 196.774124,545.928528
	C196.585464,543.150635 196.459061,540.368469 196.162155,537.292358
	C211.454391,529.006897 226.634521,520.467407 242.386703,513.161194
	C264.071747,503.103210 286.207825,494.019897 308.117371,484.442963
	C342.960236,469.212616 377.772461,453.912262 412.605072,438.658447
	C420.513184,435.195282 428.451569,431.801239 436.808533,428.549652
	C436.270905,430.518707 435.722778,432.827026 434.263306,434.026306
	C423.509399,442.863373 412.863892,451.876923 401.629517,460.074615
	C383.007721,473.662994 364.210388,487.040588 345.053680,499.859375
	C313.059692,521.268188 280.699188,542.128784 248.592346,563.370300
	C246.620789,564.674622 245.516205,567.289490 244.008240,569.294617
z"/>
	<path fill="#92C4DF" opacity="1.000000" stroke="none"
		  d="
M309.878906,658.413696
	C312.848267,653.274536 316.475555,650.597961 322.668823,652.659363
	C324.622070,653.309509 327.725128,652.250977 329.629974,650.972900
	C335.331390,647.147522 341.499786,645.337463 348.257355,644.855103
	C349.705566,644.751709 351.859711,643.802856 352.342590,642.669800
	C355.273895,635.791382 361.082031,633.087097 367.633057,631.075317
	C371.271759,629.957886 374.826477,628.512634 378.320953,626.989990
	C388.809509,622.419983 396.924988,626.631104 404.350250,633.760742
	C411.259064,640.394409 418.216736,646.977295 425.165192,653.569580
	C427.671967,655.947876 430.006775,656.419189 432.971863,653.833496
	C434.410156,652.579224 436.911713,652.159241 438.963196,652.068298
	C444.270844,651.833008 449.608063,652.191650 454.906921,651.872375
	C456.568024,651.772217 458.144592,650.269531 459.944763,649.045227
	C460.559540,649.021851 460.989441,649.362061 461.658386,649.829712
	C463.087921,651.959717 464.278412,653.962341 465.637207,656.199463
	C459.912445,657.625366 454.070160,659.367188 448.117859,659.915894
	C417.676422,662.722595 387.207153,665.227600 356.746460,667.824646
	C345.494843,668.783875 334.241425,669.723694 322.983704,670.606750
	C322.231995,670.665710 321.436584,670.167297 320.215149,669.482849
	C318.204315,668.018188 316.639862,666.998779 315.075439,665.979370
	C313.356903,663.574524 311.638367,661.169739 309.878906,658.413696
z"/>
	<path fill="#AFB3A8" opacity="1.000000" stroke="none"
		  d="
M138.878174,594.308472
	C142.559692,593.708923 146.153564,593.772705 149.634247,593.176086
	C153.389908,592.532410 156.994659,590.828613 160.752670,590.445984
	C162.979446,590.219177 165.375244,591.652039 167.864227,592.672546
	C161.729004,595.376892 155.461777,597.853210 149.107880,600.082520
	C144.421982,601.726624 139.653793,603.159241 134.867554,604.489136
	C126.274200,606.876831 119.103523,610.286255 114.571846,619.168579
	C111.155647,625.864563 104.879280,631.101196 99.550735,637.075562
	C94.199989,633.460815 89.247124,629.650940 84.086197,626.147522
	C83.084061,625.467163 81.271118,625.981262 79.091866,626.033142
	C75.526367,626.762573 72.701164,627.403320 69.875961,628.044067
	C67.885605,628.022217 65.886948,628.109192 63.906429,627.958191
	C57.856262,627.496948 55.115437,623.796875 57.376705,618.181885
	C57.961838,616.728943 61.334511,616.398560 63.706944,615.275513
	C73.767250,612.094727 83.828255,609.888489 93.249687,606.094177
	C102.982361,602.174622 112.662086,598.906128 123.152115,597.870544
	C128.402084,597.352295 133.547806,595.777832 138.878174,594.308472
z"/>
	<path fill="#C2C5C8" opacity="1.000000" stroke="none"
		  d="
M314.977600,666.334290
	C316.639862,666.998779 318.204315,668.018188 319.862976,669.325562
	C318.995514,670.909607 318.155121,673.211304 317.053284,673.344116
	C307.398743,674.508057 297.701996,675.341431 288.004517,676.104370
	C286.811859,676.198181 285.541382,675.302185 284.091003,674.525513
	C283.899323,673.995178 283.923645,673.804138 283.970581,673.325317
	C292.894379,671.937195 301.812958,670.952576 310.680237,669.625000
	C312.192688,669.398560 313.485474,667.705017 314.977600,666.334290
z"/>
	<path fill="#9DB6C7" opacity="1.000000" stroke="none"
		  d="
M493.461243,487.034912
	C490.734558,485.054688 488.444275,481.440216 486.069031,481.383484
	C478.718262,481.208008 470.953430,481.163116 464.050537,483.315826
	C452.557129,486.900146 441.865143,493.078644 430.351532,496.566406
	C420.497589,499.551361 409.981079,500.411285 399.708069,501.859863
	C398.612183,502.014374 397.184540,499.816284 396.034821,498.010864
	C398.693512,495.119629 401.228210,492.927185 404.115662,490.668762
	C411.522278,485.999969 418.853271,481.767639 425.583008,476.731720
	C458.765564,451.900848 492.303741,427.504639 522.619873,399.075134
	C524.937195,396.902039 528.187317,395.723663 531.003906,394.082947
	C531.020142,398.157196 530.945312,402.234375 531.076050,406.304932
	C531.235107,411.257233 531.947205,416.221893 531.713928,421.147797
	C531.498108,425.702789 530.029907,430.189606 529.687134,434.749603
	C529.165710,441.686188 529.139893,448.660034 528.894104,455.894836
	C539.770691,456.465149 548.112305,453.055054 556.633057,449.337280
	C555.648071,455.456146 554.322327,461.253906 552.996582,467.051697
	C548.383545,468.724945 543.746155,470.334564 539.162476,472.084778
	C529.997253,475.584351 520.852844,479.139313 511.731323,482.751007
	C511.068878,483.013367 510.661285,483.919281 510.051392,484.879028
	C504.597992,485.830750 499.228394,486.429443 493.461243,487.034912
z"/>
	<path fill="#DFE1E0" opacity="1.000000" stroke="none"
		  d="
M940.244141,207.175110
	C941.174133,205.376556 942.071350,203.405640 943.592651,202.273010
	C946.506165,200.103790 949.994019,198.690765 952.843872,196.454575
	C957.062683,193.144089 956.866638,188.997009 952.840332,185.579025
	C946.313049,180.037872 940.181335,173.945908 933.218811,169.025772
	C925.940613,163.882645 918.313721,157.567566 910.033691,155.988144
	C902.156738,154.485657 897.740906,148.682556 891.019958,146.364624
	C889.589844,145.871384 888.238953,143.576889 887.853394,141.884079
	C885.527832,131.673599 878.747742,125.796036 869.626587,121.672218
	C863.938293,119.100403 858.709473,115.517609 853.036926,112.903984
	C849.165466,111.120209 844.545593,110.836784 840.863220,108.795120
	C834.998352,105.543358 829.331238,101.754921 824.160217,97.490486
	C820.237183,94.255310 816.649048,91.505074 811.313293,90.617935
	C807.533081,89.989441 804.029724,87.213615 800.600830,85.078316
	C796.411926,82.469772 792.449890,79.499199 788.349731,76.744804
	C786.565552,75.546257 783.454102,74.827187 783.048584,73.323273
	C780.922119,65.436707 773.634583,65.673378 768.151672,63.149956
	C761.997192,60.317421 755.922424,57.069458 749.467529,55.186367
	C738.802551,52.075085 728.080750,54.761795 717.413391,56.356667
	C710.049561,57.457634 702.579346,57.873489 695.237305,59.084534
	C690.003662,59.947811 684.903992,61.624039 679.324707,62.944885
	C679.901550,59.071640 681.932495,56.742092 686.402344,56.729027
	C688.993774,56.721455 691.582092,55.625614 694.815796,55.220314
	C698.874939,55.046738 702.310181,54.802052 705.701355,54.274132
	C716.797913,52.546707 727.920898,50.931931 738.933716,48.765636
	C741.517273,48.257431 743.707520,45.750263 746.078735,44.162743
	C747.538635,44.276649 749.004700,44.522671 750.456238,44.455517
	C751.344238,44.414429 752.215820,43.908260 753.084473,43.583385
	C755.177856,42.800453 757.202698,41.636326 759.364807,41.265541
	C779.279663,37.850368 799.173706,34.268410 819.164734,31.359522
	C832.420959,29.430605 845.817627,28.436573 859.166687,27.186985
	C868.072205,26.353348 877.068359,26.258558 885.908081,25.011536
	C895.948792,23.595072 902.080383,28.913914 906.915894,36.229431
	C915.332153,48.962219 923.122009,62.107460 931.437439,74.908951
	C939.564636,87.420631 948.084229,99.676933 956.280212,112.144791
	C957.999023,114.759354 959.057617,117.807938 960.750732,121.138947
	C964.623901,129.886948 969.888367,136.816101 977.089050,142.242142
	C981.769287,146.552307 984.473938,152.190887 987.776001,158.260742
	C989.646973,161.697144 991.091003,164.581253 992.760803,167.328079
	C994.471191,170.141556 996.396118,172.825012 998.238770,175.557495
	C1000.911255,179.520462 998.813293,181.538055 995.256165,183.042068
	C993.153625,183.931061 991.103333,184.943588 989.029602,185.900543
	C985.574219,187.568146 982.118835,189.235733 978.262878,190.919098
	C974.000916,193.264130 970.237732,195.783600 966.238770,197.845993
	C964.098816,198.949631 961.467834,199.058731 959.209534,199.985092
	C955.661194,201.440674 952.298584,203.349960 948.746887,204.795715
	C946.085754,205.878983 943.250854,206.535110 940.244141,207.175110
z"/>
	<path fill="#CBCDCA" opacity="1.000000" stroke="none"
		  d="
M745.663208,44.176682
	C743.707520,45.750263 741.517273,48.257431 738.933716,48.765636
	C727.920898,50.931931 716.797913,52.546707 705.701355,54.274132
	C702.310181,54.802052 698.874939,55.046738 695.232971,55.225464
	C698.605957,53.703796 702.106384,51.861824 705.823669,51.144939
	C718.924805,48.618336 732.100403,46.477680 745.663208,44.176682
z"/>
	<path fill="#CBCDCA" opacity="1.000000" stroke="none"
		  d="
M989.100952,186.265381
	C991.103333,184.943588 993.153625,183.931061 995.256165,183.042068
	C998.813293,181.538055 1000.911255,179.520462 998.238770,175.557495
	C996.396118,172.825012 994.471191,170.141556 992.760803,167.328079
	C991.091003,164.581253 989.646973,161.697144 988.010986,158.523682
	C989.356079,159.049988 991.187866,159.616745 992.161499,160.857056
	C995.741394,165.417633 998.898254,170.310562 1002.484009,174.866165
	C1005.219971,178.342148 1004.935669,181.369888 1001.584900,183.865570
	C997.949890,186.572968 994.021667,188.934540 989.100952,186.265381
z"/>
	<path fill="#C8CAC8" opacity="1.000000" stroke="none"
		  d="
M977.313599,141.928131
	C969.888367,136.816101 964.623901,129.886948 961.049622,121.251122
	C962.058044,121.478172 963.377258,121.844833 964.091675,122.710564
	C968.356506,127.878204 972.525574,133.127335 976.607666,138.440643
	C977.233826,139.255646 977.243347,140.544449 977.313599,141.928131
z"/>
	<path fill="#445C71" opacity="1.000000" stroke="none"
		  d="
M159.049759,682.044495
	C159.135223,681.984924 159.197540,681.908325 159.119293,681.913696
	C158.978760,681.995667 159.026611,682.027466 159.049759,682.044495
z"/>
	<path fill="#C2C5C8" opacity="1.000000" stroke="none"
		  d="
M69.705139,628.310913
	C72.701164,627.403320 75.526367,626.762573 78.742378,626.088013
	C77.438416,631.654724 72.287041,630.536011 68.045853,631.367798
	C68.387039,630.257385 68.960678,629.417603 69.705139,628.310913
z"/>
	<path fill="#B86D54" opacity="1.000000" stroke="none"
		  d="
M553.377319,467.020630
	C554.322327,461.253906 555.648071,455.456146 556.988525,449.246643
	C562.666504,435.670654 567.994263,422.346497 574.156006,409.419830
	C576.666504,404.153015 578.276978,397.874451 584.230713,394.759491
	C587.039856,393.289795 588.286987,389.461090 592.351379,389.613098
	C593.140869,389.642670 594.013306,387.455597 594.925659,385.917389
	C599.583557,382.797394 603.937378,379.508331 608.815125,377.478180
	C612.641235,375.885742 617.108948,375.809753 621.303101,375.131256
	C633.386536,373.176514 645.476440,371.261200 657.562134,369.320465
	C659.037476,369.083557 660.495117,368.728394 661.974548,368.527832
	C666.478516,367.917114 667.834473,369.516205 666.235168,373.842255
	C661.348816,387.059113 656.196533,400.180328 651.502991,413.464294
	C649.844482,418.158020 649.210388,423.213654 647.803589,428.653687
	C645.945618,431.863403 644.392639,434.523499 642.839661,437.183594
	C636.743408,439.220337 630.632263,441.214569 624.564087,443.331665
	C623.428528,443.727814 622.464661,444.615906 621.487854,445.621521
	C613.862976,447.903351 606.047241,449.450836 598.506958,451.860352
	C583.510498,456.652527 568.665527,461.919037 553.377319,467.020630
z"/>
	<path fill="#ABA9A4" opacity="1.000000" stroke="none"
		  d="
M643.136597,437.295441
	C644.392639,434.523499 645.945618,431.863403 647.815186,429.026306
	C648.422791,430.946075 648.713684,433.042816 649.007935,435.551025
	C648.736023,436.091980 648.492554,436.266022 648.142944,436.661255
	C646.481140,437.027740 644.957275,437.217499 643.136597,437.295441
z"/>
	<path fill="#6A9B91" opacity="1.000000" stroke="none"
		  d="
M531.064453,393.721161
	C528.187317,395.723663 524.937195,396.902039 522.619873,399.075134
	C492.303741,427.504639 458.765564,451.900848 425.583008,476.731720
	C418.853271,481.767639 411.522278,485.999969 403.925354,490.403015
	C401.560913,490.132172 399.374786,489.372528 397.982117,490.110504
	C392.285706,493.128815 386.988159,496.910614 381.253357,499.843475
	C371.369293,504.898315 361.052979,509.132996 351.308655,514.430359
	C336.144165,522.674377 321.321777,531.546326 306.322479,540.096130
	C300.984924,543.138550 295.500702,545.925903 290.194702,549.020447
	C288.297150,550.127136 285.144135,551.449890 289.045502,554.092285
	C274.295563,559.116699 259.545593,564.141113 244.401947,569.230042
	C245.516205,567.289490 246.620789,564.674622 248.592346,563.370300
	C280.699188,542.128784 313.059692,521.268188 345.053680,499.859375
	C364.210388,487.040588 383.007721,473.662994 401.629517,460.074615
	C412.863892,451.876923 423.509399,442.863373 434.263306,434.026306
	C435.722778,432.827026 436.270905,430.518707 437.145020,428.450165
	C438.960938,427.019592 440.872833,425.862762 442.964417,424.422394
	C453.400940,425.633087 461.156891,419.191193 469.675293,415.483215
	C484.125519,409.193115 498.299164,402.266388 512.561401,395.548492
	C513.463135,395.123718 514.126160,394.192200 515.483521,392.972076
	C513.320923,392.380707 511.976288,392.013031 510.833466,391.700531
	C518.172119,389.796936 525.699951,387.844269 533.629578,385.949524
	C533.062683,388.458099 532.093872,390.908722 531.064453,393.721161
z"/>
	<path fill="#6A9B91" opacity="1.000000" stroke="none"
		  d="
M534.850037,385.121521
	C534.863770,385.261017 534.650208,385.522339 534.213989,385.906006
	C534.201843,385.766693 534.412354,385.505005 534.850037,385.121521
z"/>
	<path fill="#435C71" opacity="1.000000" stroke="none"
		  d="
M289.420654,554.016174
	C285.144135,551.449890 288.297150,550.127136 290.194702,549.020447
	C295.500702,545.925903 300.984924,543.138550 306.322479,540.096130
	C321.321777,531.546326 336.144165,522.674377 351.308655,514.430359
	C361.052979,509.132996 371.369293,504.898315 381.253357,499.843475
	C386.988159,496.910614 392.285706,493.128815 397.982117,490.110504
	C399.374786,489.372528 401.560913,490.132172 403.572571,490.469055
	C401.228210,492.927185 398.693512,495.119629 395.971893,497.594849
	C394.577789,498.372314 393.214844,498.651459 392.186951,499.394257
	C377.907837,509.712738 363.650513,520.061890 349.462250,530.504700
	C347.773315,531.747803 346.522705,533.586487 345.014282,535.480408
	C342.031769,536.966003 339.103912,538.120300 336.021423,539.607178
	C327.093964,542.602966 318.320618,545.264465 309.548431,547.929932
	C302.963409,549.930725 296.379913,551.936462 289.420654,554.016174
z"/>
	<text x="1400" y="500" font-family="Arial" font-size="450" fill="#FFF">~</text>
</svg>
